HIERARCHY
ROOT Hips
{
	OFFSET 0.000000 0.000000 0.000000
	CHANNELS 6 Xposition Yposition Zposition Zrotation Yrotation Xrotation 
	JOINT LHipJoint
	{
		OFFSET 0.000000 0.000000 0.000000
		CHANNELS 3 Zrotation Yrotation Xrotation
		JOINT LeftUpLeg
		{
			OFFSET 1.363060 -1.794630 0.839290
			CHANNELS 3 Zrotation Yrotation Xrotation
			JOINT LeftLeg
			{
				OFFSET 2.448110 -6.726130 0.000000
				CHANNELS 3 Zrotation Yrotation Xrotation
				JOINT LeftFoot
				{
					OFFSET 2.562200 -7.039590 0.000000
					CHANNELS 3 Zrotation Yrotation Xrotation
					JOINT LeftToeBase
					{
						OFFSET 0.157640 -0.433110 2.322550
						CHANNELS 3 Zrotation Yrotation Xrotation
						End Site
						{
							OFFSET 0.000000 0.000000 0.000000
						}
					}
				}
			}
		}
	}
	JOINT RHipJoint
	{
		OFFSET 0.000000 0.000000 0.000000
		CHANNELS 3 Zrotation Yrotation Xrotation
		JOINT RightUpLeg
		{
			OFFSET -1.305520 -1.794630 0.839290
			CHANNELS 3 Zrotation Yrotation Xrotation
			JOINT RightLeg
			{
				OFFSET -2.542530 -6.985550 0.000000
				CHANNELS 3 Zrotation Yrotation Xrotation
				JOINT RightFoot
				{
					OFFSET -2.568260 -7.056230 0.000000
					CHANNELS 3 Zrotation Yrotation Xrotation
					JOINT RightToeBase
					{
						OFFSET -0.164730 -0.452590 2.363150
						CHANNELS 3 Zrotation Yrotation Xrotation
						End Site
						{
							OFFSET 0.000000 0.000000 0.000000
						}
					}
				}
			}
		}
	}
	JOINT LowerBack
	{
		OFFSET 0.000000 0.000000 0.000000
		CHANNELS 3 Zrotation Yrotation Xrotation
		JOINT Spine
		{
			OFFSET 0.028270 2.035590 -0.193380
			CHANNELS 3 Zrotation Yrotation Xrotation
			JOINT Spine1
			{
				OFFSET 0.056720 2.048850 -0.042750
				CHANNELS 3 Zrotation Yrotation Xrotation
				JOINT Neck
				{
					OFFSET 0.000000 0.000000 0.000000
					CHANNELS 3 Zrotation Yrotation Xrotation
					JOINT Neck1
					{
						OFFSET -0.054170 1.746240 0.172020
						CHANNELS 3 Zrotation Yrotation Xrotation
						JOINT Head
						{
							OFFSET 0.104070 1.761360 -0.123970
							CHANNELS 3 Zrotation Yrotation Xrotation
							End Site
							{
								OFFSET 0.000000 0.000000 0.000000
							}
						}
					}
				}
				JOINT LeftShoulder
				{
					OFFSET 0.000000 0.000000 0.000000
					CHANNELS 3 Zrotation Yrotation Xrotation
					JOINT LeftArm
					{
						OFFSET 3.362410 1.200890 -0.311210
						CHANNELS 3 Zrotation Yrotation Xrotation
						JOINT LeftForeArm
						{
							OFFSET 4.983000 -0.000000 -0.000000
							CHANNELS 3 Zrotation Yrotation Xrotation
							JOINT LeftHand
							{
								OFFSET 3.483560 -0.000000 -0.000000
								CHANNELS 3 Zrotation Yrotation Xrotation
								JOINT LeftFingerBase
								{
									OFFSET 0.000000 0.000000 0.000000
									CHANNELS 3 Zrotation Yrotation Xrotation
									JOINT LeftHandIndex1
									{
										OFFSET 0.715260 -0.000000 -0.000000
										CHANNELS 3 Zrotation Yrotation Xrotation
										End Site
										{
											OFFSET 0.000000 0.000000 0.000000
										}
									}
								}
								JOINT LThumb
								{
									OFFSET 0.000000 0.000000 0.000000
									CHANNELS 3 Zrotation Yrotation Xrotation
									End Site
									{
										OFFSET 0.000000 0.000000 0.000000
									}
								}
							}
						}
					}
				}
				JOINT RightShoulder
				{
					OFFSET 0.000000 0.000000 0.000000
					CHANNELS 3 Zrotation Yrotation Xrotation
					JOINT RightArm
					{
						OFFSET -3.136600 1.374050 -0.404650
						CHANNELS 3 Zrotation Yrotation Xrotation
						JOINT RightForeArm
						{
							OFFSET -5.241900 -0.000000 -0.000000
							CHANNELS 3 Zrotation Yrotation Xrotation
							JOINT RightHand
							{
								OFFSET -3.444170 -0.000000 -0.000000
								CHANNELS 3 Zrotation Yrotation Xrotation
								JOINT RightFingerBase
								{
									OFFSET 0.000000 0.000000 0.000000
									CHANNELS 3 Zrotation Yrotation Xrotation
									JOINT RightHandIndex1
									{
										OFFSET -0.622530 -0.000000 -0.000000
										CHANNELS 3 Zrotation Yrotation Xrotation
										End Site
										{
											OFFSET 0.000000 0.000000 0.000000
										}
									}
								}
								JOINT RThumb
								{
									OFFSET 0.000000 0.000000 0.000000
									CHANNELS 3 Zrotation Yrotation Xrotation
									End Site
									{
										OFFSET 0.000000 0.000000 0.000000
									}
								}
							}
						}
					}
				}
			}
		}
	}
}
MOTION
Frames: 12
Frame Time: 0.008333
-4.505867 17.918242 -17.489767 1.911003 1.198307 5.490827 -2.852343 -0.520793 0.918313 -21.930264 2.102390 -10.385524 -0.028535 5.453167 15.244034 1.324821 -8.083915 -2.942376 1.821100 -8.483100 -24.191400 2.067939 1.450357 -0.670507 15.423617 6.331806 -14.814382 -3.011655 -10.531054 29.689407 0.028752 -3.471070 -10.868324 -0.177700 -2.715700 7.488100 -5.540947 -1.393343 16.270592 0.359314 -2.446200 1.521352 5.893210 -1.471295 -5.384572 -10.638583 -8.906512 1.417981 12.959998 -12.035648 -7.158172 4.147400 -6.579100 0.346200 2.477545 5.280356 -0.669454 -96.473868 7.030623 15.507250 28.752508 -45.660699 -11.266449 -0.341525 1.118364 1.380236 10.620519 -13.155356 -2.740400 -7.125000 0.000000 0.000000 -11.214300 15.640700 7.931100 -1.276231 -6.682512 -1.176050 87.095836 5.068867 20.111917 -15.470467 35.122456 -4.507271 -0.580404 -2.209323 -1.333117 -11.007748 -39.079397 6.276300 7.125000 0.000000 0.000000 30.357200 -64.903500 -15.264200 
-4.495304 17.924420 -17.572672 1.965594 1.231067 5.849712 -2.850827 -0.536761 0.885632 -22.046928 2.033186 -11.122210 -0.025806 5.465061 15.267645 1.338509 -8.341804 -2.611620 1.887400 -8.627600 -24.637100 2.080443 1.427023 -0.653581 15.210339 6.721309 -15.567517 -3.058121 -10.554406 29.887608 0.093672 -3.785354 -10.498751 -0.137900 -2.393800 6.595300 -5.278732 -1.324450 17.105335 0.429864 -2.334175 1.783977 5.826875 -1.416088 -5.583327 -10.684801 -8.831063 1.466543 13.371652 -11.883486 -7.966346 4.319300 -6.549200 0.124400 2.472860 5.305872 -0.667649 -96.412330 6.744385 17.575484 29.066178 -45.951273 -11.403148 -0.330660 1.133801 1.404941 11.511409 -13.295110 -2.998000 -7.125000 0.000000 0.000000 -10.614900 15.422300 7.542200 -1.265727 -6.740956 -1.199847 87.031693 5.831019 20.766112 -15.473430 35.153141 -4.505658 -0.581904 -2.208838 -1.424371 -11.026484 -39.002918 6.273900 7.125000 0.000000 0.000000 30.250600 -64.844900 -15.165200 
-4.481055 17.928207 -17.665442 2.096463 1.114364 6.296029 -2.849258 -0.560507 0.837417 -22.284191 1.888163 -12.091909 -0.006029 5.567905 15.540979 1.329722 -8.358439 -2.361287 1.952200 -8.765900 -25.065600 2.097300 1.403512 -0.631035 14.845073 7.143769 -16.449998 -3.095826 -10.544430 30.004666 0.128453 -3.902370 -10.127398 -0.152500 -2.516200 6.934500 -5.027296 -1.213815 17.886340 0.435675 -2.166367 2.121624 5.670350 -1.342170 -5.698224 -10.632663 -8.870801 1.116574 13.657667 -11.863036 -8.230645 4.382500 -6.553300 0.120500 2.465624 5.355953 -0.667557 -96.248849 6.421379 19.936508 29.603134 -46.403159 -11.657803 -0.316131 1.149832 1.301558 12.192936 -13.647802 -3.250900 -7.125000 0.000000 0.000000 -10.160400 15.000300 7.302000 -1.257180 -6.788367 -1.213528 87.060570 6.689735 21.427444 -15.445639 35.157800 -4.493206 -0.598094 -2.203790 -1.436613 -11.307457 -38.860409 6.416100 7.125000 0.000000 0.000000 29.804300 -64.804900 -14.895100 
-4.466308 17.929402 -17.769172 2.057442 0.990592 6.753097 -2.840720 -0.578350 0.787631 -22.334337 1.665884 -13.061221 0.005173 5.650963 15.757514 1.298775 -8.220117 -1.940874 1.869300 -8.588400 -24.516200 2.114997 1.378030 -0.606064 14.661535 7.490373 -17.418671 -3.137877 -10.532227 30.127946 0.150192 -3.927909 -9.737173 -0.149500 -2.492000 6.867400 -4.623419 -1.115906 18.826142 0.500697 -1.980582 2.501382 5.488831 -1.261231 -5.885578 -10.350782 -9.067313 0.231205 13.504025 -12.057443 -7.706749 4.198200 -6.611900 0.405800 2.451690 5.427303 -0.663614 -96.041341 6.136672 22.539109 30.397527 -47.036686 -12.058840 -0.301149 1.171434 0.931175 12.890109 -14.064784 -3.532300 -7.125000 0.000000 0.000000 -9.702800 14.500500 7.068100 -1.249138 -6.820409 -1.220553 87.043000 7.612437 22.241952 -15.419633 35.163279 -4.473833 -0.616188 -2.206890 -1.525713 -11.612326 -38.947344 6.603000 7.125000 0.000000 0.000000 29.612900 -64.959100 -14.896400 
-4.452457 17.931794 -17.880875 1.999421 0.957132 7.247928 -2.829371 -0.596247 0.733633 -22.337299 1.394801 -14.111671 0.022935 5.750184 16.018998 1.284315 -8.216238 -1.531106 1.685900 -8.178600 -23.258000 2.136626 1.353388 -0.578108 14.490397 7.800984 -18.449560 -3.179639 -10.512478 30.239147 0.163692 -3.896751 -9.332684 -0.156400 -2.548000 7.022700 -4.208105 -1.052119 19.933406 0.625678 -1.827853 2.869825 5.375379 -1.194219 -6.172422 -10.176177 -9.140154 -0.726535 13.435744 -12.081058 -6.939281 4.060500 -6.568400 0.767800 2.436882 5.511062 -0.655875 -95.877252 5.961803 25.302906 31.456889 -47.845016 -12.615385 -0.292123 1.202150 0.293335 13.634796 -14.237936 -3.783200 -7.125000 0.000000 0.000000 -9.216700 14.226400 6.758600 -1.238901 -6.838882 -1.227590 86.884750 8.610626 23.190058 -15.284319 35.033195 -4.399998 -0.636750 -2.210904 -1.615946 -11.785764 -39.098010 6.718000 7.125000 0.000000 0.000000 29.643400 -65.129900 -15.029200 
-4.442393 17.936776 -18.001147 2.147435 1.007041 7.881991 -2.819452 -0.621453 0.667008 -22.545571 1.098323 -15.374305 0.049393 5.870968 16.338087 1.294199 -8.408784 -1.238107 1.573600 -7.915000 -22.456100 2.166502 1.326427 -0.544007 14.070303 8.161788 -19.652324 -3.221982 -10.484011 30.350464 0.192728 -3.966333 -8.913620 -0.182000 -2.747800 7.577300 -3.956915 -0.998167 21.036850 0.723961 -1.715139 3.253714 5.332842 -1.148057 -6.428489 -10.035653 -9.152768 -1.810261 13.444857 -12.015130 -5.939060 3.951600 -6.463100 1.217500 2.424061 5.615318 -0.645377 -95.719520 5.727767 28.162199 32.669871 -48.732128 -13.264740 -0.283936 1.236174 -0.486844 14.322506 -14.444432 -4.033000 -7.125000 0.000000 0.000000 -8.772900 13.915700 6.483600 -1.231063 -6.854767 -1.233593 86.691034 9.795956 24.153488 -15.036101 34.776611 -4.282815 -0.674639 -2.198993 -1.709664 -12.251895 -38.947937 6.959200 7.125000 0.000000 0.000000 29.029700 -65.140000 -14.700100 
-4.435617 17.938470 -18.125704 2.249057 1.084679 8.571176 -2.808653 -0.647707 0.598251 -22.697066 0.843758 -16.693376 0.069949 5.967091 16.584639 1.317504 -8.688023 -1.038418 1.584700 -7.941500 -22.536700 2.200285 1.295091 -0.507745 13.696267 8.545628 -20.937104 -3.270335 -10.464414 30.501779 0.236412 -4.147680 -8.543042 -0.188700 -2.797700 7.716100 -3.670736 -0.961737 22.169780 0.847715 -1.611033 3.668832 5.297513 -1.107980 -6.653945 -9.712523 -9.133643 -2.830831 13.211996 -11.946383 -4.870653 3.750000 -6.351700 1.650100 2.405559 5.720005 -0.633807 -95.488486 5.409404 31.123646 33.997757 -49.663908 -13.993984 -0.276954 1.271490 -1.527131 15.037912 -14.724329 -4.316100 -7.125000 0.000000 0.000000 -8.317900 13.521200 6.209800 -1.227055 -6.885169 -1.243850 86.528785 11.109513 25.081046 -14.735754 34.461806 -4.147098 -0.726335 -2.179272 -1.658382 -12.872416 -38.720724 7.277700 7.125000 0.000000 0.000000 28.173600 -65.131300 -14.228500 
-4.429439 17.938072 -18.253150 2.294631 1.121435 9.275701 -2.796402 -0.671375 0.528755 -22.777402 0.548788 -17.961191 0.078991 6.030790 16.736852 1.330792 -8.868709 -0.838524 1.620900 -8.027300 -22.796900 2.238695 1.260125 -0.469058 13.343292 8.971069 -22.290082 -3.331026 -10.460866 30.718815 0.263174 -4.233908 -8.271867 -0.278200 -3.392200 9.372700 -3.372179 -0.909243 23.353591 1.004621 -1.475202 4.112336 5.274868 -1.055309 -6.857302 -9.481706 -8.963679 -3.468977 13.150627 -11.700504 -4.014308 3.659800 -6.168600 1.963800 2.385532 5.822840 -0.622933 -95.197282 5.013916 34.206980 35.475747 -50.652971 -14.824659 -0.275592 1.308976 -2.819307 15.715273 -14.858634 -4.557600 -7.125000 0.000000 0.000000 -7.889400 13.271200 5.925300 -1.219467 -6.926631 -1.263181 86.373785 12.535341 25.925505 -14.387310 34.085893 -3.989851 -0.769806 -2.170336 -1.453240 -13.052906 -38.664953 7.359200 7.125000 0.000000 0.000000 27.967100 -65.135800 -14.119400 
-4.423859 17.939068 -18.384084 2.502814 1.115800 10.142827 -2.781361 -0.698065 0.444001 -23.021518 0.133877 -19.380988 0.089460 6.101884 16.908971 1.332686 -9.004931 -0.545098 1.616300 -8.016400 -22.764000 2.286677 1.219235 -0.422237 12.743455 9.462089 -23.885057 -3.401207 -10.455745 30.973910 0.282031 -4.260508 -8.004403 -0.507800 -4.568100 12.680600 -3.186772 -0.782741 24.417652 1.087949 -1.270531 4.632530 5.208714 -0.978563 -6.929483 -9.148698 -8.865801 -4.428941 13.218553 -11.537514 -2.702108 3.572200 -5.991300 2.480200 2.364525 5.960919 -0.613500 -94.782582 4.392737 37.398574 37.036465 -51.639564 -15.706021 -0.266703 1.340825 -3.947420 16.003481 -15.233193 -4.748100 -7.125000 0.000000 0.000000 -7.731500 12.821100 5.878000 -1.211300 -6.962491 -1.282317 86.264176 14.199827 26.632517 -14.018220 33.694171 -3.829155 -0.820805 -2.161071 -1.252347 -13.319156 -38.611731 7.489300 7.125000 0.000000 0.000000 27.681600 -65.165900 -13.984100 
-4.416186 17.936577 -18.515019 2.749548 1.035581 11.103168 -2.758493 -0.725127 0.350548 -23.339212 -0.256676 -20.945441 0.104899 6.183899 17.111846 1.331181 -9.160398 -0.154056 1.614900 -8.013200 -22.754300 2.339536 1.175418 -0.372299 12.067572 9.973779 -25.623487 -3.478032 -10.449883 31.254177 0.315423 -4.350121 -7.585201 -0.505400 -4.557200 12.649800 -2.964034 -0.597987 25.415953 1.112904 -0.983948 5.256105 5.035474 -0.876382 -6.880690 -8.438135 -8.960729 -6.003018 13.348698 -11.640368 -0.487021 3.040000 -5.850900 3.026300 2.341306 6.151958 -0.603319 -94.270736 3.526365 40.681546 38.586671 -52.572593 -16.590469 -0.247004 1.369070 -4.700387 16.349198 -15.964285 -5.058000 -7.125000 0.000000 0.000000 -7.550400 12.004900 5.867300 -1.210003 -6.984874 -1.299078 86.175236 16.183228 27.236447 -13.503963 33.134667 -3.611660 -0.898380 -2.143805 -1.066472 -13.941698 -38.492400 7.812200 7.125000 0.000000 0.000000 26.976300 -65.244100 -13.651800 
-4.406221 17.929701 -18.642266 2.845925 0.741572 12.041499 -2.730204 -0.747664 0.256066 -23.497386 -0.715278 -22.460892 0.116492 6.271916 17.328857 1.303082 -8.999796 0.204153 1.621200 -8.028000 -22.799200 2.390031 1.126018 -0.321842 11.537782 10.579533 -27.359359 -3.563227 -10.449555 31.560007 0.349847 -4.406333 -6.937888 -0.309900 -3.579200 9.895600 -2.774925 -0.407891 26.437202 1.259339 -0.689284 5.814830 5.019908 -0.765997 -6.872961 -8.106987 -8.841763 -6.943475 13.187288 -11.512474 1.433482 2.902900 -5.642800 3.645000 2.322346 6.312812 -0.582291 -94.031905 2.843127 43.586271 40.229541 -53.521660 -17.554728 -0.231289 1.406557 -5.287775 16.984153 -16.591025 -5.448400 -7.125000 0.000000 0.000000 -7.178000 11.248500 5.685900 -1.203395 -7.019250 -1.334895 85.837645 18.233476 28.246869 -12.854480 32.376712 -3.327702 -0.973130 -2.125440 -0.906250 -14.236302 -38.423503 7.943500 7.125000 0.000000 0.000000 26.686600 -65.274900 -13.514300 
-4.395360 17.923324 -18.765926 2.829079 0.375980 13.067824 -2.698133 -0.769705 0.153516 -23.492243 -1.321979 -24.025776 0.130985 6.378918 17.597417 1.264892 -8.688370 0.496934 1.591400 -7.957300 -22.584500 2.442054 1.072797 -0.266205 11.099723 11.182956 -29.210936 -3.655030 -10.443954 31.871284 0.352415 -4.227076 -6.176756 -0.276000 -3.379400 9.336900 -2.690246 -0.302169 27.347946 1.560448 -0.513780 6.225084 5.274700 -0.705841 -6.906614 -8.257159 -8.466729 -6.992064 13.003632 -11.057394 3.104141 2.907000 -5.319700 4.068600 2.314510 6.436660 -0.549369 -94.170071 2.522456 45.825692 42.072177 -54.525360 -18.659550 -0.221528 1.453079 -5.852054 17.325163 -16.873508 -5.653200 -7.125000 0.000000 0.000000 -6.986700 10.866500 5.587100 -1.179489 -7.040555 -1.381888 85.267644 20.162750 29.689436 -12.279540 31.672818 -3.065960 -1.033962 -2.105207 -0.776173 -14.295194 -38.444524 7.954100 7.125000 0.000000 0.000000 26.746900 -65.320400 -13.574900 
